<?xml version="1.0" encoding="utf-8"?>
<!-- Generator: Adobe Illustrator 27.4.1, SVG Export Plug-In . SVG Version: 6.00 Build 0)  -->
<svg version="1.1" id="Layer_1" xmlns="http://www.w3.org/2000/svg" xmlns:xlink="http://www.w3.org/1999/xlink" x="0px" y="0px"
	 viewBox="0 0 575 575" style="enable-background:new 0 0 575 575;" xml:space="preserve">
<style type="text/css">
	.st0{fill:#E6E6E6;}
</style>
<g>
	<path class="st0" d="M392.2,431.4L143.6,182.8c-10.8-10.8-10.8-28.4,0-39.2l0,0c10.8-10.8,28.4-10.8,39.2,0l248.6,248.6
		c10.8,10.8,10.8,28.4,0,39.2l0,0C420.6,442.2,403,442.2,392.2,431.4z"/>
	<path class="st0" d="M182.8,431.4l248.6-248.6c10.8-10.8,10.8-28.4,0-39.2l0,0c-10.8-10.8-28.4-10.8-39.2,0L143.6,392.2
		c-10.8,10.8-10.8,28.4,0,39.2l0,0C154.4,442.2,172,442.2,182.8,431.4z"/>
</g>
</svg>
