<?xml version="1.0" encoding="UTF-8"?><svg id="uuid-cb9d1484-88ec-4764-b787-08d67b0319c1" xmlns="http://www.w3.org/2000/svg" viewBox="0 0 50.1 50.1"><g id="uuid-38515a70-f5c3-4c6a-b07c-7bcca62fefb2"><g><path d="M37.9,16.4l6.8-6.8c7.7,9.8,7.1,24.1-2,33.1-9.1,9.1-23.3,9.7-33.1,2l6.8-6.8c6,4.1,14.2,3.4,19.6-1.9,5.3-5.3,6-13.6,1.9-19.6h0Z" fill="#e6e6e6" stroke="#e6e6e6" stroke-miterlimit="10" stroke-width="0"/><path d="M16.4,37.9c-.8-.5-1.6-1.2-2.3-1.9s-1.3-1.5-1.9-2.3l7.1-7.1,4.2,4.2s-7.1,7.1-7.1,7.1Z" fill="#e6e6e6" stroke="#e6e6e6" stroke-miterlimit="10" stroke-width="0"/><path d="M33.7,12.2c.8,.5,1.6,1.2,2.3,1.9s1.3,1.5,1.9,2.3l-7.1,7.1-4.2-4.2s7.1-7.1,7.1-7.1Z" fill="#e6e6e6" stroke="#e6e6e6" stroke-miterlimit="10" stroke-width="0"/><path d="M7.4,7.4C16.4-1.7,30.7-2.3,40.5,5.4l-6.8,6.8c-6-4.1-14.2-3.4-19.6,1.9s-6,13.6-1.9,19.6l-6.8,6.8C-2.3,30.7-1.7,16.4,7.4,7.4Z" fill="#e6e6e6" stroke="#e6e6e6" stroke-miterlimit="10" stroke-width="0"/></g></g></svg>