<?xml version="1.0" encoding="utf-8"?>
<!-- Generator: Adobe Illustrator 27.4.1, SVG Export Plug-In . SVG Version: 6.00 Build 0)  -->
<svg version="1.1" id="Layer_1" xmlns="http://www.w3.org/2000/svg" xmlns:xlink="http://www.w3.org/1999/xlink" x="0px" y="0px"
	 viewBox="0 0 575 575" style="enable-background:new 0 0 575 575;" xml:space="preserve">
<style type="text/css">
	.st0{fill:#E6E6E6;}
</style>
<g>
	<path class="st0" d="M463.3,195.1H111.7c-15.3,0-27.7-12.4-27.7-27.7v0c0-15.3,12.4-27.7,27.7-27.7h351.6
		c15.3,0,27.7,12.4,27.7,27.7v0C491,182.7,478.6,195.1,463.3,195.1z"/>
	<path class="st0" d="M463.3,315.2H111.7c-15.3,0-27.7-12.4-27.7-27.7v0c0-15.3,12.4-27.7,27.7-27.7h351.6
		c15.3,0,27.7,12.4,27.7,27.7v0C491,302.8,478.6,315.2,463.3,315.2z"/>
	<path class="st0" d="M463.3,435.3H111.7c-15.3,0-27.7-12.4-27.7-27.7v0c0-15.3,12.4-27.7,27.7-27.7h351.6
		c15.3,0,27.7,12.4,27.7,27.7v0C491,422.9,478.6,435.3,463.3,435.3z"/>
</g>
</svg>
