<?xml version="1.0" encoding="UTF-8"?>
<svg xmlns="http://www.w3.org/2000/svg" viewBox="0 0 149.98 149.98" width='100px'>
<g fill='none' stroke='#E6E6E6' stroke-width='0.3px'>
    <path d="M113.42,49.07l20.49-20.49c23.24,29.43,21.28,72.26-5.89,99.42-27.17,27.17-69.99,29.13-99.42,5.89l20.49-20.49c18.02,12.19,42.73,10.3,58.69-5.66,15.96-15.96,17.85-40.66,5.66-58.69Z"/>
    <path d="M49.07,113.42c-2.42-1.63-4.72-3.52-6.86-5.66s-4.03-4.44-5.66-6.86l21.33-21.33,12.52,12.52-21.33,21.33Z"/>
    <path d="M100.9,36.56c2.42,1.63,4.72,3.52,6.86,5.66,2.14,2.14,4.03,4.44,5.66,6.86l-21.33,21.33-12.52-12.52,21.33-21.33Z"/>
    <path d="M21.96,21.96C49.13-5.2,91.96-7.17,121.39,16.07l-20.49,20.49c-18.02-12.19-42.73-10.3-58.69,5.66-15.96,15.96-17.85,40.66-5.66,58.69l-20.49,20.49C-7.17,91.96-5.2,49.13,21.96,21.96Z"/>
</g>
</svg>